<?xml version="1.0" encoding="UTF-8" standalone="no"?>
<!-- Created with Inkscape (http://www.inkscape.org/) -->

<svg
   xmlns:sodipodi0="http://sodiposdi.sourceforge.net/DTD/sodipodi-0.dtd"
   xmlns:dc="http://purl.org/dc/elements/1.1/"
   xmlns:cc="http://creativecommons.org/ns#"
   xmlns:rdf="http://www.w3.org/1999/02/22-rdf-syntax-ns#"
   xmlns:svg="http://www.w3.org/2000/svg"
   xmlns="http://www.w3.org/2000/svg"
   xmlns:xlink="http://www.w3.org/1999/xlink"
   xmlns:sodipodi="http://sodipodi.sourceforge.net/DTD/sodipodi-0.dtd"
   xmlns:inkscape="http://www.inkscape.org/namespaces/inkscape"
   width="960mm"
   height="600mm"
   viewBox="0 0 960 600"
   version="1.1"
   id="svg8"
   inkscape:version="0.92.4 (5da689c313, 2019-01-14)"
   sodipodi0:docname="squash-logo.svg"
   sodipodi:docname="squash-logo.svg">
  <sodipodi:namedview
     pagecolor="#ffffff"
     bordercolor="#666666"
     borderopacity="1"
     objecttolerance="10"
     gridtolerance="10"
     guidetolerance="10"
     inkscape:pageopacity="0"
     inkscape:pageshadow="2"
     inkscape:window-width="2560"
     inkscape:window-height="1377"
     id="namedview37"
     showgrid="false"
     inkscape:zoom="0.32962674"
     inkscape:cx="1310.554"
     inkscape:cy="1164.351"
     inkscape:window-x="-8"
     inkscape:window-y="-8"
     inkscape:window-maximized="1"
     inkscape:current-layer="layer1" />
  <defs
     id="defs2">
    <linearGradient
       x1="17.045849"
       y1="124.67077"
       x2="132.63301"
       y2="223.79634"
       id="linearGradient2414"
       xlink:href="#linearGradient3429"
       gradientUnits="userSpaceOnUse"
       gradientTransform="matrix(0.2361466,0,0,0.2361466,2.0795258,-20.941604)" />
    <linearGradient
       id="linearGradient3429">
      <stop
         id="stop3431"
         style="stop-color:#474747;stop-opacity:1"
         offset="0" />
      <stop
         id="stop3433"
         style="stop-color:#111111;stop-opacity:1"
         offset="1" />
    </linearGradient>
    <linearGradient
       id="linearGradient3397">
      <stop
         id="stop3399"
         style="stop-color:#bca606;stop-opacity:1"
         offset="0" />
      <stop
         id="stop3401"
         style="stop-color:#f9e238;stop-opacity:1"
         offset="1" />
    </linearGradient>
    <linearGradient
       x1="40.806789"
       y1="100.66119"
       x2="71.311241"
       y2="125.64357"
       id="linearGradient2420"
       xlink:href="#linearGradient3362"
       gradientUnits="userSpaceOnUse"
       gradientTransform="matrix(1.007559,0,0,1.007559,-40.28546,-98.688773)" />
    <linearGradient
       id="linearGradient3362">
      <stop
         id="stop3364"
         style="stop-color:#e6e6e6;stop-opacity:1"
         offset="0" />
      <stop
         id="stop3366"
         style="stop-color:#e6e6e6;stop-opacity:0"
         offset="1" />
    </linearGradient>
    <linearGradient
       inkscape:collect="always"
       xlink:href="#linearGradient3429"
       id="linearGradient894"
       gradientUnits="userSpaceOnUse"
       gradientTransform="matrix(0.2361466,0,0,0.2361466,2.0795258,-20.941604)"
       x1="17.045849"
       y1="124.67077"
       x2="132.63301"
       y2="223.79634" />
    <linearGradient
       inkscape:collect="always"
       xlink:href="#linearGradient3397"
       id="linearGradient896"
       gradientUnits="userSpaceOnUse"
       x1="-278.4653"
       y1="193.44319"
       x2="-270.36649"
       y2="202.4536" />
    <linearGradient
       inkscape:collect="always"
       xlink:href="#linearGradient3397"
       id="linearGradient898"
       gradientUnits="userSpaceOnUse"
       x1="-278.4653"
       y1="193.44319"
       x2="-270.36649"
       y2="202.4536" />
    <linearGradient
       inkscape:collect="always"
       xlink:href="#linearGradient3362"
       id="linearGradient900"
       gradientUnits="userSpaceOnUse"
       gradientTransform="matrix(1.007559,0,0,1.007559,-40.28546,-98.688773)"
       x1="40.806789"
       y1="100.66119"
       x2="71.311241"
       y2="125.64357" />
  </defs>
  <sodipodi0:namedview
     id="base"
     pagecolor="#ffffff"
     bordercolor="#666666"
     borderopacity="1.0"
     inkscape:pageopacity="0.0"
     inkscape:pageshadow="2"
     inkscape:zoom="0.35"
     inkscape:cx="1737.7884"
     inkscape:cy="828.19249"
     inkscape:document-units="mm"
     inkscape:current-layer="layer1"
     showgrid="false"
     inkscape:window-width="2560"
     inkscape:window-height="1377"
     inkscape:window-x="-8"
     inkscape:window-y="-8"
     inkscape:window-maximized="1" />
  <metadata
     id="metadata5">
    <rdf:RDF>
      <cc:Work
         rdf:about="">
        <dc:format>image/svg+xml</dc:format>
        <dc:type
           rdf:resource="http://purl.org/dc/dcmitype/StillImage" />
        <dc:title />
      </cc:Work>
    </rdf:RDF>
  </metadata>
  <g
     inkscape:label="Layer 1"
     inkscape:groupmode="layer"
     id="layer1"
     transform="translate(0,303)">
    <path
       inkscape:connector-curvature="0"
       d="m 331.79417,-71.619556 q -2.65024,-3.003468 -6.18362,-5.300315 -3.53356,-2.473392 -7.95041,-4.240163 -4.41701,-1.766771 -9.54048,-2.826774 -4.94694,-1.059532 -10.60064,-1.059532 -16.43074,0 -24.20444,6.360319 -7.59718,6.183626 -7.59718,16.96081 0,7.420314 3.53355,11.66062 3.71024,4.240136 11.48395,6.890201 7.77372,2.650215 19.78758,5.47698 13.42742,2.826752 23.1446,6.713677 9.71717,3.88678 15.01734,10.600474 5.30032,6.537027 5.30032,17.8442699 0,8.6570134 -3.35686,15.0173401 -3.35685,6.360307 -9.36378,10.600634 -6.00694,4.240157 -14.31073,6.360317 -8.3038,1.943457 -18.19751,1.943457 -9.71717,0 -18.72773,-1.943457 -8.83371,-2.12016 -16.78412,-6.006937 -7.95039,-4.063627 -14.8408,-10.247254 l 6.18363,-10.0705534 q 3.35686,3.5335467 7.9504,6.7137067 4.77024,3.0034667 10.42395,5.4770067 5.83025,2.473387 12.36726,3.886777 6.71371,1.23638 13.78065,1.23638 15.01749,0 23.32129,-5.476847 8.48032,-5.4770067 8.48032,-16.2541901 0,-7.7737062 -4.24016,-12.3672429 -4.24016,-4.770247 -12.72065,-7.773718 -8.48048,-3.003626 -20.84774,-5.830393 -13.07403,-3.00347 -22.08443,-6.713698 -9.01041,-3.710059 -13.60396,-9.716966 -4.41701,-6.183744 -4.41701,-16.254123 0,-11.660645 5.65371,-19.611044 5.83024,-8.1271 15.9008,-12.19057 10.07041,-4.240159 23.14444,-4.240159 8.30378,0 15.37088,1.766618 7.24363,1.59008 13.25056,4.770238 6.18364,3.18016 11.48396,7.950399 z"
       style="font-style:normal;font-variant:normal;font-weight:normal;font-stretch:normal;font-size:11.28888893px;line-height:1.25;font-family:Raleway;-inkscape-font-specification:'Raleway, Normal';font-variant-ligatures:normal;font-variant-caps:normal;font-variant-numeric:normal;font-feature-settings:normal;text-align:start;letter-spacing:0px;word-spacing:0px;writing-mode:lr-tb;text-anchor:start;fill:#000000;fill-opacity:1;stroke:none;stroke-width:4.14083433;paint-order:stroke fill markers"
       id="path848" />
    <path
       inkscape:connector-curvature="0"
       d="m 398.82874,32.088909 q -9.36379,0 -17.13749,-3.886927 -7.59703,-3.886777 -13.07403,-10.600484 -5.47702,-6.713707 -8.48049,-15.1941804 -3.00347,-8.6570129 -3.00347,-18.0208006 0,-9.717173 3.35685,-18.197641 3.35687,-8.65697 9.18711,-15.193943 6.00708,-6.713682 13.95749,-10.423918 8.12694,-3.886779 17.3142,-3.886779 10.77717,0 19.78758,5.65355 9.18709,5.477005 14.31072,13.957277 v -18.020746 h 10.77718 V 67.953971 h -12.01388 v -56.71279 q -13.60395,20.847728 -34.98177,20.847728 z m 3.71025,-10.600644 q 7.24362,0 13.07387,-2.826767 6.00709,-3.00347 10.42395,-7.950397 4.59354,-4.9469267 7.7737,-10.95386334 V -28.687503 q -0.53055,-4.770231 -3.53354,-9.010367 -3.00347,-4.416997 -7.42032,-7.773678 -4.41686,-3.533519 -9.54049,-5.30028 -5.12362,-1.943469 -10.07056,-1.943469 -7.59702,0 -13.78065,3.180153 -6.00693,3.180142 -10.60048,8.480432 -4.5937,5.30013 -7.0671,12.013829 -2.47339,6.713697 -2.47339,13.60409 0,9.8937137 4.24017,18.3742006 4.41685,8.4804634 11.83717,13.6040904 7.42049,4.946767 17.13767,4.946767 z"
       style="font-style:normal;font-variant:normal;font-weight:normal;font-stretch:normal;font-size:11.28888893px;line-height:1.25;font-family:Raleway;-inkscape-font-specification:'Raleway, Normal';font-variant-ligatures:normal;font-variant-caps:normal;font-variant-numeric:normal;font-feature-settings:normal;text-align:start;letter-spacing:0px;word-spacing:0px;writing-mode:lr-tb;text-anchor:start;fill:#000000;fill-opacity:1;stroke:none;stroke-width:4.14083433;paint-order:stroke fill markers"
       id="path850" />
    <path
       inkscape:connector-curvature="0"
       d="M 471.47555,-7.6630853 V -61.725683 h 12.01387 v 51.9424377 q 0,15.7241096 5.30032,23.4978163 5.47702,7.773694 16.0775,7.773694 7.0671,0 13.60396,-3.003457 6.7137,-3.180157 11.83733,-8.8337037 5.12363,-5.8302367 7.77371,-13.4274134 V -61.725683 h 12.01387 v 77.560401 q 0,2.4734 1.05954,3.71025 1.05953,1.05953 3.18016,1.236367 v 9.540487 q -2.12001,0.17686 -3.35686,0.17686 -1.23638,0.17684 -2.29669,0.17684 -3.53356,-0.3537 -6.18364,-2.82693 -2.47354,-2.473387 -2.65023,-6.006927 l -0.3537,-12.3672507 q -6.00694,10.6004737 -16.43073,16.6075577 -10.24726,6.006937 -22.26112,6.006937 -14.48742,0 -21.90791,-10.070554 -7.42032,-10.070554 -7.42032,-29.6814403 z"
       style="font-style:normal;font-variant:normal;font-weight:normal;font-stretch:normal;font-size:11.28888893px;line-height:1.25;font-family:Raleway;-inkscape-font-specification:'Raleway, Normal';font-variant-ligatures:normal;font-variant-caps:normal;font-variant-numeric:normal;font-feature-settings:normal;text-align:start;letter-spacing:0px;word-spacing:0px;writing-mode:lr-tb;text-anchor:start;fill:#000000;fill-opacity:1;stroke:none;stroke-width:4.14083433;paint-order:stroke fill markers"
       id="path852" />
    <path
       inkscape:connector-curvature="0"
       d="m 569.83972,3.8208676 q 0,-8.6571769 4.94693,-14.8408036 4.94678,-6.360313 13.60396,-9.717174 8.83371,-3.533546 20.31765,-3.533546 6.71371,0 13.95734,1.05953 7.24379,1.05954 12.89734,3.180157 v -7.773694 q 0,-11.660448 -6.89024,-18.550809 -6.89041,-6.890372 -19.08097,-6.890372 -7.42048,0 -14.66411,2.826776 -7.0671,2.650214 -14.8408,7.950354 l -4.59355,-8.480281 q 9.0104,-6.183603 17.66758,-9.187081 8.65718,-3.18016 17.66758,-3.18016 16.96081,0 26.85467,9.717016 9.89387,9.717123 9.89387,26.854703 v 42.578775 q 0,2.47338 1.05953,3.71008 1.05953,1.05953 3.35685,1.236377 v 9.540487 q -1.94346,0.17684 -3.35685,0.3537 -1.41322,0.17685 -2.12015,0 -4.41686,-0.17686 -6.71372,-2.82678 -2.29669,-2.650077 -2.47339,-5.653547 l -0.17684,-6.713707 q -6.18379,7.950407 -16.0775,12.367254 -9.89387,4.240157 -20.14113,4.240157 -8.83371,0 -16.0775,-3.710077 -7.06693,-3.886927 -11.13055,-10.247254 -3.88678,-6.537007 -3.88678,-14.3107104 z m 61.65975,7.0669234 q 1.94347,-2.4733867 3.00347,-4.7702267 1.05953,-2.2966967 1.05953,-4.0634767 V -11.373322 q -6.00693,-2.29669 -12.54394,-3.53355 -6.36033,-1.236371 -12.89734,-1.236371 -12.89734,0 -20.84774,5.123617 -7.95041,5.1236207 -7.95041,13.9573436 0,5.1236167 2.65024,9.7171634 2.65009,4.416847 7.77371,7.420477 5.12362,2.826767 12.01387,2.826767 8.65703,0 16.0775,-3.356847 7.59702,-3.35685 11.66049,-8.657167 z"
       style="font-style:normal;font-variant:normal;font-weight:normal;font-stretch:normal;font-size:11.28888893px;line-height:1.25;font-family:Raleway;-inkscape-font-specification:'Raleway, Normal';font-variant-ligatures:normal;font-variant-caps:normal;font-variant-numeric:normal;font-feature-settings:normal;text-align:start;letter-spacing:0px;word-spacing:0px;writing-mode:lr-tb;text-anchor:start;fill:#000000;fill-opacity:1;stroke:none;stroke-width:4.14083433;paint-order:stroke fill markers"
       id="path854" />
    <path
       inkscape:connector-curvature="0"
       d="m 703.74598,32.088909 q -11.30725,0 -21.02451,-3.710237 -9.71716,-3.710237 -16.78388,-11.307254 l 4.94688,-8.4803137 q 7.77373,7.2436137 15.54746,10.6004837 7.95034,3.180157 16.78388,3.180157 10.7774,0 17.49089,-4.240167 6.71381,-4.417007 6.71381,-12.5441037 0,-5.47684664 -3.35691,-8.3036334 -3.18018,-3.0034702 -9.36382,-4.7702362 -6.00669,-1.94346 -14.48743,-4.0636167 -9.54043,-2.65008 -16.07741,-5.476857 -6.36036,-3.00346 -9.71727,-7.420477 -3.18007,-4.593537 -3.18007,-11.837143 0,-9.010519 4.41714,-14.840726 4.59355,-6.006921 12.36728,-9.010388 7.95034,-3.180161 17.6675,-3.180161 10.60035,0 18.72742,3.356853 8.12729,3.356862 13.2509,9.363773 l -5.83051,8.127044 q -4.947,-5.65367 -11.83699,-8.303734 -6.71392,-2.826762 -15.01772,-2.826762 -5.65335,0 -10.77718,1.590071 -5.12361,1.413221 -8.48052,4.946899 -3.18007,3.356683 -3.18007,9.36375 0,4.9469 2.47371,7.773667 2.47318,2.65009 7.42017,4.593547 4.94689,1.76677 12.19055,3.886776 10.42406,2.826931 18.19768,5.830397 7.77362,2.826781 12.01383,7.4203177 4.24041,4.5935462 4.24041,12.8973429 0,12.8973204 -9.71715,20.1409574 -9.71727,7.243774 -25.61807,7.243774 z"
       style="font-style:normal;font-variant:normal;font-weight:normal;font-stretch:normal;font-size:11.28888893px;line-height:1.25;font-family:Raleway;-inkscape-font-specification:'Raleway, Normal';font-variant-ligatures:normal;font-variant-caps:normal;font-variant-numeric:normal;font-feature-settings:normal;text-align:start;letter-spacing:0px;word-spacing:0px;writing-mode:lr-tb;text-anchor:start;fill:#000000;fill-opacity:1;stroke:none;stroke-width:4.14083433;paint-order:stroke fill markers"
       id="path856" />
    <path
       inkscape:connector-curvature="0"
       d="M 836.15065,30.322132 H 824.1365 V -21.0905 q 0,-15.547387 -5.47674,-23.321054 -5.47717,-7.950346 -15.72407,-7.950346 -6.7137,0 -13.42762,3.533523 -6.53698,3.356829 -11.66059,9.363736 -4.94668,5.830217 -7.06683,13.427214 V 30.322132 H 758.7665 V -98.650923 h 12.01415 v 57.772901 q 5.47674,-10.247193 15.1939,-16.254114 9.89388,-6.183628 21.0244,-6.183628 7.95046,0 13.42762,2.826776 5.65336,2.826774 9.01037,8.303779 3.53353,5.30013 5.12362,12.543868 1.59009,7.066901 1.59009,16.077455 z"
       style="font-style:normal;font-variant:normal;font-weight:normal;font-stretch:normal;font-size:11.28888893px;line-height:1.25;font-family:Raleway;-inkscape-font-specification:'Raleway, Normal';font-variant-ligatures:normal;font-variant-caps:normal;font-variant-numeric:normal;font-feature-settings:normal;text-align:start;letter-spacing:0px;word-spacing:0px;writing-mode:lr-tb;text-anchor:start;fill:#000000;fill-opacity:1;stroke:none;stroke-width:4.14083433;paint-order:stroke fill markers"
       id="path858" />
    <g
       id="g1086-4-8"
       transform="matrix(3.3237508,0,0,3.3237508,101.96587,-99.606383)">
      <path
         style="fill:url(#linearGradient894);fill-opacity:1;fill-rule:nonzero;stroke:none;stroke-width:2;stroke-linecap:round;stroke-linejoin:miter;stroke-miterlimit:4;stroke-dasharray:none;stroke-dashoffset:0;stroke-opacity:1"
         id="path2579-7-5"
         d="M 39.305126,20.097617 C 39.306872,30.722709 30.694023,39.336974 20.06893,39.336974 9.4438383,39.336974 0.83098891,30.722709 0.83273501,20.097617 0.83098891,9.472525 9.4438383,0.85826 20.06893,0.85826 c 10.625093,0 19.237942,8.614265 19.236196,19.239357 z"
         inkscape:connector-curvature="0" />
      <g
         id="g3405-3-1"
         transform="matrix(0.2023605,0.05261402,-0.08535221,0.1801688,82.466007,8.8909557)">
        <path
           style="opacity:1;fill:#dec50c;fill-opacity:1;fill-rule:nonzero;stroke:none;stroke-width:2;stroke-linecap:round;stroke-linejoin:miter;stroke-miterlimit:4;stroke-dasharray:none;stroke-dashoffset:0;stroke-opacity:1"
           id="path3387-2-5"
           transform="matrix(1,0,0.4754098,1,-74.950861,-0.1885618)"
           d="m -268.37291,198.11153 c 0,2.96799 -2.63715,5.37401 -5.89024,5.37401 -3.25309,0 -5.89024,-2.40602 -5.89024,-5.37401 0,-2.96799 2.63715,-5.37401 5.89024,-5.37401 3.25309,0 5.89024,2.40602 5.89024,5.37401 z"
           inkscape:connector-curvature="0" />
        <path
           style="opacity:1;fill:url(#linearGradient896);fill-opacity:1;fill-rule:nonzero;stroke:none;stroke-width:2;stroke-linecap:round;stroke-linejoin:miter;stroke-miterlimit:4;stroke-dasharray:none;stroke-dashoffset:0;stroke-opacity:1"
           id="path3395-9-2"
           transform="matrix(0.8684211,0,0.4128559,0.8684211,-98.645465,25.878744)"
           d="m -268.37291,198.11153 c 0,2.96799 -2.63715,5.37401 -5.89024,5.37401 -3.25309,0 -5.89024,-2.40602 -5.89024,-5.37401 0,-2.96799 2.63715,-5.37401 5.89024,-5.37401 3.25309,0 5.89024,2.40602 5.89024,5.37401 z"
           inkscape:connector-curvature="0" />
      </g>
      <g
         id="g3421-6-9"
         transform="matrix(0.178447,0.04171819,-0.00606089,0.1428576,57.615972,16.027556)">
        <path
           style="opacity:1;fill:#dec50c;fill-opacity:1;fill-rule:nonzero;stroke:none;stroke-width:2;stroke-linecap:round;stroke-linejoin:miter;stroke-miterlimit:4;stroke-dasharray:none;stroke-dashoffset:0;stroke-opacity:1"
           id="path3423-2-1"
           transform="matrix(1,0,0.4754098,1,-74.950861,-0.1885618)"
           d="m -268.37291,198.11153 c 0,2.96799 -2.63715,5.37401 -5.89024,5.37401 -3.25309,0 -5.89024,-2.40602 -5.89024,-5.37401 0,-2.96799 2.63715,-5.37401 5.89024,-5.37401 3.25309,0 5.89024,2.40602 5.89024,5.37401 z"
           inkscape:connector-curvature="0" />
        <path
           style="opacity:1;fill:url(#linearGradient898);fill-opacity:1;fill-rule:nonzero;stroke:none;stroke-width:2;stroke-linecap:round;stroke-linejoin:miter;stroke-miterlimit:4;stroke-dasharray:none;stroke-dashoffset:0;stroke-opacity:1"
           id="path3425-6-1"
           transform="matrix(0.8684211,0,0.4128559,0.8684211,-98.645465,25.878744)"
           d="m -268.37291,198.11153 c 0,2.96799 -2.63715,5.37401 -5.89024,5.37401 -3.25309,0 -5.89024,-2.40602 -5.89024,-5.37401 0,-2.96799 2.63715,-5.37401 5.89024,-5.37401 3.25309,0 5.89024,2.40602 5.89024,5.37401 z"
           inkscape:connector-curvature="0" />
      </g>
      <path
         style="opacity:0.75;fill:url(#linearGradient900);fill-opacity:1;fill-rule:nonzero;stroke:none;stroke-width:2;stroke-linecap:round;stroke-linejoin:miter;stroke-miterlimit:4;stroke-dashoffset:0;stroke-opacity:1"
         id="path4757-3-9"
         d="m 20.073665,2.4194015 c -9.770385,0 -17.6835644,7.9131785 -17.6835645,17.6835645 0,1.626563 0.2732132,3.130984 0.6356836,4.507575 0.216304,0.77539 0.8770957,1.345038 1.6758934,1.444735 0.5127376,0.06881 1.261956,0.288947 2.2826823,0.288947 9.7664542,0 17.5679842,-7.908265 17.5679852,-17.6835636 0,-1.6298106 -0.230358,-3.1031294 -0.548999,-4.4497857 C 23.807153,3.4128711 23.142059,2.8165813 22.327452,2.7083487 21.835976,2.6433166 21.094043,2.4194015 20.073665,2.4194015 Z"
         inkscape:connector-curvature="0" />
    </g>
  </g>
</svg>
